<svg width="214" height="225" viewBox="0 0 214 225" fill="none" xmlns="http://www.w3.org/2000/svg">
<path d="M18 139.6L0.666687 127.067L54 41.7334L86 79.0667L128.667 9.73335L160.667 57.7334L196.667 0.666687L214 13.2L161.2 96.9334L129.467 49.2L88.9333 115.067L56.6667 77.4667L18 139.6ZM144.667 182C152.133 182 158.444 179.422 163.6 174.267C168.756 169.111 171.333 162.8 171.333 155.333C171.333 147.867 168.756 141.556 163.6 136.4C158.444 131.244 152.133 128.667 144.667 128.667C137.2 128.667 130.889 131.244 125.733 136.4C120.578 141.556 118 147.867 118 155.333C118 162.8 120.578 169.111 125.733 174.267C130.889 179.422 137.2 182 144.667 182ZM199.067 224.667L170.267 195.867C166.533 198.356 162.489 200.222 158.133 201.467C153.778 202.711 149.289 203.333 144.667 203.333C131.333 203.333 120 198.667 110.667 189.333C101.333 180 96.6667 168.667 96.6667 155.333C96.6667 142 101.333 130.667 110.667 121.333C120 112 131.333 107.333 144.667 107.333C158 107.333 169.333 112 178.667 121.333C188 130.667 192.667 142 192.667 155.333C192.667 159.956 192.044 164.444 190.8 168.8C189.556 173.156 187.689 177.2 185.2 180.933L214 209.733L199.067 224.667Z" fill="#00AEEF"/>
</svg>
