<svg width="184" height="133" viewBox="0 0 184 133" fill="none" xmlns="http://www.w3.org/2000/svg">
<path d="M46.1667 132.667C33.5278 132.667 22.7292 128.292 13.7708 119.542C4.81251 110.792 0.333344 100.097 0.333344 87.4584C0.333344 76.6251 3.59723 66.9723 10.125 58.5001C16.6528 50.0279 25.1945 44.6112 35.75 42.2501C38.1111 32.2501 44.0139 22.7362 53.4583 13.7084C62.9028 4.68064 72.9722 0.166748 83.6667 0.166748C88.25 0.166748 92.1736 1.79869 95.4375 5.06258C98.7014 8.32647 100.333 12.2501 100.333 16.8334V67.2501L113.667 54.3334L125.333 66.0001L92 99.3334L58.6667 66.0001L70.3333 54.3334L83.6667 67.2501V16.8334C73.1111 18.7779 64.9167 23.882 59.0833 32.1459C53.25 40.4098 50.3333 48.9168 50.3333 57.6668H46.1667C38.1111 57.6668 31.2361 60.514 25.5417 66.2084C19.8472 71.9029 17 78.7779 17 86.8334C17 94.889 19.8472 101.764 25.5417 107.458C31.2361 113.153 38.1111 116 46.1667 116H146.167C152 116 156.931 113.986 160.958 109.958C164.986 105.931 167 101 167 95.1668C167 89.3334 164.986 84.4029 160.958 80.3751C156.931 76.3473 152 74.3334 146.167 74.3334H133.667V57.6668C133.667 51.0001 132.139 44.7848 129.083 39.0209C126.028 33.257 122 28.3612 117 24.3334V4.95842C127.278 9.81953 135.403 17.007 141.375 26.5209C147.347 36.0348 150.333 46.4168 150.333 57.6668C159.917 58.7779 167.868 62.9098 174.188 70.0626C180.507 77.2154 183.667 85.5834 183.667 95.1668C183.667 105.583 180.021 114.438 172.729 121.729C165.438 129.021 156.583 132.667 146.167 132.667H46.1667Z" fill="#00F0E3"/>
</svg>
