<svg width="168" height="168" viewBox="0 0 168 168" fill="none" xmlns="http://www.w3.org/2000/svg">
<path d="M92.3333 75.6667H150.25C148.167 60.389 141.812 47.4376 131.187 36.8126C120.562 26.1876 107.611 19.8334 92.3333 17.7501V75.6667ZM75.6666 150.25V17.7501C58.8611 19.8334 44.9375 27.1598 33.8958 39.7292C22.8542 52.2987 17.3333 67.0556 17.3333 84.0001C17.3333 100.945 22.8542 115.701 33.8958 128.271C44.9375 140.84 58.8611 148.167 75.6666 150.25ZM92.3333 150.25C107.611 148.306 120.597 141.986 131.292 131.292C141.986 120.597 148.306 107.611 150.25 92.3334H92.3333V150.25ZM84 167.333C72.4722 167.333 61.6389 165.146 51.5 160.771C41.3611 156.396 32.5417 150.458 25.0417 142.958C17.5417 135.458 11.6042 126.639 7.22916 116.5C2.85416 106.361 0.666656 95.5278 0.666656 84.0001C0.666656 72.4723 2.85416 61.639 7.22916 51.5001C11.6042 41.3612 17.5417 32.5417 25.0417 25.0417C32.5417 17.5417 41.3611 11.6042 51.5 7.22925C61.6389 2.85425 72.4722 0.666748 84 0.666748C95.5278 0.666748 106.326 2.85425 116.396 7.22925C126.465 11.6042 135.285 17.5765 142.854 25.1459C150.424 32.7154 156.396 41.5348 160.771 51.6042C165.146 61.6737 167.333 72.4723 167.333 84.0001C167.333 95.389 165.146 106.153 160.771 116.292C156.396 126.431 150.458 135.285 142.958 142.854C135.458 150.424 126.639 156.396 116.5 160.771C106.361 165.146 95.5278 167.333 84 167.333Z" fill="#00F0E3"/>
</svg>
