<svg width="168" height="167" viewBox="0 0 168 167" fill="none" xmlns="http://www.w3.org/2000/svg">
<path d="M76.5 141.833H91.0833V131.417C98.0278 130.167 104 127.458 109 123.292C114 119.125 116.5 112.945 116.5 104.75C116.5 98.9167 114.833 93.5695 111.5 88.7084C108.167 83.8473 101.5 79.6112 91.5 76.0001C83.1667 73.2223 77.4028 70.7917 74.2083 68.7084C71.0139 66.6251 69.4167 63.7779 69.4167 60.1667C69.4167 56.5556 70.7014 53.7084 73.2708 51.6251C75.8403 49.5417 79.5556 48.5001 84.4167 48.5001C88.8611 48.5001 92.3333 49.5765 94.8333 51.7292C97.3333 53.882 99.1389 56.5556 100.25 59.7501L113.583 54.3334C112.056 49.4723 109.243 45.2362 105.146 41.6251C101.049 38.014 96.5 36.0001 91.5 35.5834V25.1667H76.9167V35.5834C69.9722 37.1112 64.5556 40.1667 60.6667 44.7501C56.7778 49.3334 54.8333 54.4723 54.8333 60.1667C54.8333 66.6945 56.7431 71.9723 60.5625 76.0001C64.382 80.0279 70.3889 83.5001 78.5833 86.4167C87.3333 89.6112 93.4097 92.4584 96.8125 94.9584C100.215 97.4584 101.917 100.722 101.917 104.75C101.917 109.333 100.285 112.701 97.0208 114.854C93.757 117.007 89.8333 118.083 85.25 118.083C80.6667 118.083 76.6042 116.66 73.0625 113.813C69.5208 110.965 66.9167 106.695 65.25 101L51.5 106.417C53.4445 113.083 56.4653 118.465 60.5625 122.563C64.6597 126.66 69.9722 129.472 76.5 131V141.833ZM84 166.833C72.4722 166.833 61.6389 164.646 51.5 160.271C41.3611 155.896 32.5417 149.958 25.0417 142.458C17.5417 134.958 11.6042 126.139 7.22919 116C2.85419 105.861 0.666687 95.0278 0.666687 83.5001C0.666687 71.9723 2.85419 61.139 7.22919 51.0001C11.6042 40.8612 17.5417 32.0417 25.0417 24.5417C32.5417 17.0417 41.3611 11.1042 51.5 6.72925C61.6389 2.35425 72.4722 0.166748 84 0.166748C95.5278 0.166748 106.361 2.35425 116.5 6.72925C126.639 11.1042 135.458 17.0417 142.958 24.5417C150.458 32.0417 156.396 40.8612 160.771 51.0001C165.146 61.139 167.333 71.9723 167.333 83.5001C167.333 95.0278 165.146 105.861 160.771 116C156.396 126.139 150.458 134.958 142.958 142.458C135.458 149.958 126.639 155.896 116.5 160.271C106.361 164.646 95.5278 166.833 84 166.833ZM84 150.167C102.611 150.167 118.375 143.708 131.292 130.792C144.208 117.875 150.667 102.111 150.667 83.5001C150.667 64.889 144.208 49.1251 131.292 36.2084C118.375 23.2917 102.611 16.8334 84 16.8334C65.3889 16.8334 49.625 23.2917 36.7084 36.2084C23.7917 49.1251 17.3334 64.889 17.3334 83.5001C17.3334 102.111 23.7917 117.875 36.7084 130.792C49.625 143.708 65.3889 150.167 84 150.167Z" fill="#00F0E3"/>
</svg>
