<svg width="202" height="87" viewBox="0 0 202 87" fill="none" xmlns="http://www.w3.org/2000/svg">
<path d="M54 11.1888C43 -5.31119 12.5 3.18902 12.5 3.18902V31.6888H20.5V8.68878C20.5 8.68878 29.7407 8.62298 37 8.68878C44.2593 8.75458 52.591 24.8952 40.5 31.6888H53.0305C56.9739 26.7955 59.6666 19.6887 54 11.1888Z" fill="#00AEEF"/>
<path d="M20.5 31.6888V8.68878C20.5 8.68878 29.7407 8.62298 37 8.68878C44.2593 8.75458 52.591 24.8952 40.5 31.6888M20.5 31.6888H40.5M20.5 31.6888H12.5V3.18902C12.5 3.18902 43 -5.31119 54 11.1888C59.6666 19.6887 56.9739 26.7955 53.0305 31.6888H40.5" stroke="#00AEEF"/>
<path d="M12 83.4998C12 83.4998 42.5 92 53.5 75.5C59.1666 67.0001 56.4739 59.8933 52.5306 55H40C52.091 61.7936 43.7593 77.9342 36.5 78C29.2407 78.0658 20 78 20 78V55H12V83.4998Z" fill="#00AEEF"/>
<path d="M20 55V78C20 78 29.2407 78.0658 36.5 78C43.7593 77.9342 52.091 61.7936 40 55M20 55H40M20 55H12V83.4998C12 83.4998 42.5 92 53.5 75.5C59.1666 67.0001 56.4739 59.8933 52.5306 55H40" stroke="#00AEEF"/>
<path d="M65.2443 4.12L75.3088 1L91.9762 32.5H79.9302L65.2443 4.12Z" fill="#00AEEF"/>
<path d="M132.677 1L143.244 4.12L128.368 32.5H116.009L132.677 1Z" fill="#00AEEF"/>
<path d="M103.993 85.6432L88.2443 55.21H100.478L103.993 61.8532L107.508 55.21H119.946L103.993 85.6432Z" fill="#00AEEF"/>
<path d="M65.2443 4.12L75.3088 1L91.9762 32.5H79.9302L65.2443 4.12Z" stroke="#00AEEF"/>
<path d="M132.677 1L143.244 4.12L128.368 32.5H116.009L132.677 1Z" stroke="#00AEEF"/>
<path d="M103.993 85.6432L88.2443 55.21H100.478L103.993 61.8532L107.508 55.21H119.946L103.993 85.6432Z" stroke="#00AEEF"/>
<path d="M192.744 11.1888C181.744 -5.31119 151.244 3.18902 151.244 3.18902V31.6888H159.244V8.68878C159.244 8.68878 168.485 8.62298 175.744 8.68878C183.004 8.75458 191.335 24.8952 179.244 31.6888H191.775C195.718 26.7955 198.411 19.6887 192.744 11.1888Z" fill="#00AEEF"/>
<path d="M159.244 31.6888V8.68878C159.244 8.68878 168.485 8.62298 175.744 8.68878C183.004 8.75458 191.335 24.8952 179.244 31.6888M159.244 31.6888H179.244M159.244 31.6888H151.244V3.18902C151.244 3.18902 181.744 -5.31119 192.744 11.1888C198.411 19.6887 195.718 26.7955 191.775 31.6888H179.244" stroke="#00AEEF"/>
<path d="M152.214 83.4998C152.214 83.4998 182.714 92 193.714 75.5001C199.38 67.0001 196.688 59.8934 192.744 55.0001H180.214C192.305 61.7936 183.973 77.9343 176.714 78.0001C169.454 78.0659 160.214 78.0001 160.214 78.0001V55.0001H152.214V83.4998Z" fill="#00AEEF"/>
<path d="M160.214 55.0001V78.0001C160.214 78.0001 169.454 78.0659 176.714 78.0001C183.973 77.9343 192.305 61.7936 180.214 55.0001M160.214 55.0001H180.214M160.214 55.0001H152.214V83.4998C152.214 83.4998 182.714 92 193.714 75.5001C199.38 67.0001 196.688 59.8934 192.744 55.0001H180.214" stroke="#00AEEF"/>
<path d="M31.0684 36.6191C31.0684 37.166 30.873 37.625 30.4824 37.9961C30.1113 38.3867 29.6523 38.582 29.1055 38.582H17.3867C17.0156 38.6016 16.7031 38.6895 16.4492 38.8457C16.2148 38.9824 16.0391 39.1484 15.9219 39.3438C15.8047 39.5195 15.7461 39.7051 15.7461 39.9004C15.7461 40.0957 15.8047 40.291 15.9219 40.4863C16.0391 40.6621 16.2148 40.8281 16.4492 40.9844C16.7031 41.1211 17.0156 41.1992 17.3867 41.2188H25.707C27.0742 41.2578 28.1973 41.5801 29.0762 42.1855C29.9746 42.7715 30.6094 43.4551 30.9805 44.2363C31.3711 44.998 31.5664 45.7793 31.5664 46.5801C31.5664 47.3613 31.3711 48.1426 30.9805 48.9238C30.5898 49.6855 29.9551 50.3691 29.0762 50.9746C28.1973 51.5605 27.0742 51.8535 25.707 51.8535H25.5312C25.4141 51.873 25.2969 51.8828 25.1797 51.8828H14.1055C13.5586 51.8828 13.0898 51.6973 12.6992 51.3262C12.3281 50.9355 12.1426 50.4668 12.1426 49.9199C12.1426 49.373 12.3379 48.9141 12.7285 48.543C13.0996 48.1523 13.5586 47.957 14.1055 47.957H25.8828C26.2539 47.9766 26.5566 47.9082 26.791 47.752C27.0449 47.5957 27.2305 47.4199 27.3477 47.2246C27.4648 47.0098 27.5234 46.7949 27.5234 46.5801C27.5234 46.4434 27.4648 46.2578 27.3477 46.0234C27.2305 45.7695 27.0449 45.5645 26.791 45.4082C26.5566 45.252 26.2539 45.1641 25.8828 45.1445H17.5625C16.1953 45.1055 15.0625 44.793 14.1641 44.207C13.2852 43.6211 12.6504 42.957 12.2598 42.2148C11.8887 41.4531 11.7031 40.6816 11.7031 39.9004C11.7031 39.1387 11.8984 38.3867 12.2891 37.6445C12.6797 36.8828 13.3145 36.209 14.1934 35.623C15.0723 35.0371 16.1953 34.7246 17.5625 34.6855H17.7383C17.8555 34.666 17.9727 34.6562 18.0898 34.6562H29.1055C29.6523 34.6562 30.1113 34.8516 30.4824 35.2422C30.873 35.6133 31.0684 36.0723 31.0684 36.6191ZM38.8027 50.3887C38.6855 51.5605 38.041 52.1953 36.8691 52.293C36.3223 52.293 35.8438 52.1172 35.4336 51.7656C35.043 51.3945 34.8477 50.9355 34.8477 50.3887V36.5605C34.8672 36.0137 35.0723 35.5645 35.4629 35.2129C35.8535 34.8418 36.3223 34.6562 36.8691 34.6562H49.1738C50.8926 34.7148 52.1914 35.0957 53.0703 35.7988C53.9492 36.4824 54.584 37.2637 54.9746 38.1426C55.3652 39.0215 55.5605 39.9102 55.5605 40.8086C55.5605 41.7461 55.3652 42.6543 54.9746 43.5332C54.6035 44.4121 53.9688 45.2031 53.0703 45.9062C52.1914 46.5898 51.0684 46.9219 49.7012 46.9023H42.3184C41.7715 46.9023 41.3125 46.707 40.9414 46.3164C40.5508 45.9453 40.3555 45.4863 40.3555 44.9395C40.3555 44.3926 40.541 43.9336 40.9121 43.5625C41.3027 43.1719 41.7715 42.9766 42.3184 42.9766H49.877C50.248 42.9766 50.5508 42.8594 50.7852 42.625C51.0391 42.3711 51.2246 42.0879 51.3418 41.7754C51.459 41.4434 51.5176 41.1113 51.5176 40.7793C51.5176 40.4668 51.459 40.1543 51.3418 39.8418C51.2246 39.5098 51.0391 39.2266 50.7852 38.9922C50.5508 38.7383 50.248 38.6016 49.877 38.582H39.5645C39.0566 38.6016 38.8027 38.8555 38.8027 39.3438V50.3887ZM60.6289 34.1875C61.1758 34.1875 61.6445 34.373 62.0352 34.7441C62.4258 35.0957 62.6309 35.5449 62.6504 36.0918V43.1523C62.6309 43.9531 62.6797 44.6953 62.7969 45.3789C62.9336 46.043 63.2461 46.6387 63.7344 47.166C64.2227 47.6934 64.8379 47.9766 65.5801 48.0156H74.9551C75.502 48.0352 75.9512 48.2402 76.3027 48.6309C76.6738 49.0215 76.8594 49.4902 76.8594 50.0371C76.8398 50.5645 76.6445 51.0137 76.2734 51.3848C75.9219 51.7363 75.4824 51.9219 74.9551 51.9414H64.584C63.2168 51.8633 62.084 51.4043 61.1855 50.5645C60.3066 49.7051 59.6719 48.6602 59.2812 47.4297C58.9102 46.1992 58.7148 44.8906 58.6953 43.5039V36.0918C58.7148 35.5645 58.9102 35.125 59.2812 34.7734C59.6523 34.4023 60.1016 34.207 60.6289 34.1875ZM79.0273 49.9785C79.0273 49.4316 79.2129 48.9727 79.584 48.6016C79.9746 48.2109 80.4434 48.0156 80.9902 48.0156H86.6152V38.582H80.9902C80.4434 38.582 79.9844 38.3867 79.6133 37.9961C79.2227 37.625 79.0273 37.166 79.0273 36.6191C79.0273 36.0723 79.2129 35.6133 79.584 35.2422C79.9746 34.8516 80.4434 34.6562 80.9902 34.6562H96.166C96.7129 34.6562 97.1816 34.8418 97.5723 35.2129C97.9434 35.6035 98.1289 36.0723 98.1289 36.6191C98.1289 37.166 97.9336 37.6348 97.543 38.0254C97.1719 38.3965 96.7129 38.582 96.166 38.582H90.5703V48.0156H96.166C96.7129 48.0156 97.1816 48.2012 97.5723 48.5723C97.9434 48.9629 98.1289 49.4316 98.1289 49.9785C98.1289 50.5254 97.9336 50.9941 97.543 51.3848C97.1719 51.7559 96.7129 51.9414 96.166 51.9414H80.9902C80.4434 51.9414 79.9844 51.7461 79.6133 51.3555C79.2227 50.9844 79.0273 50.5254 79.0273 49.9785ZM100.59 36.6191C100.59 36.0723 100.775 35.6133 101.146 35.2422C101.537 34.8516 102.006 34.6562 102.553 34.6562H119.604C120.15 34.6562 120.619 34.8418 121.01 35.2129C121.381 35.6035 121.566 36.0723 121.566 36.6191C121.566 37.166 121.371 37.6348 120.98 38.0254C120.609 38.3965 120.15 38.582 119.604 38.582H113.07V50.4473C112.953 51.6191 112.309 52.2539 111.137 52.3516C110.59 52.3516 110.111 52.1758 109.701 51.8242C109.311 51.4531 109.115 50.9941 109.115 50.4473V38.582H102.553C102.006 38.582 101.547 38.3867 101.176 37.9961C100.785 37.625 100.59 37.166 100.59 36.6191ZM124.086 36.6191C124.086 36.0723 124.271 35.6133 124.643 35.2422C125.033 34.8516 125.502 34.6562 126.049 34.6562H143.1C143.646 34.6562 144.115 34.8418 144.506 35.2129C144.877 35.6035 145.062 36.0723 145.062 36.6191C145.062 37.166 144.867 37.6348 144.477 38.0254C144.105 38.3965 143.646 38.582 143.1 38.582H136.566V50.4473C136.449 51.6191 135.805 52.2539 134.633 52.3516C134.086 52.3516 133.607 52.1758 133.197 51.8242C132.807 51.4531 132.611 50.9941 132.611 50.4473V38.582H126.049C125.502 38.582 125.043 38.3867 124.672 37.9961C124.281 37.625 124.086 37.166 124.086 36.6191ZM153.588 34.6562H154.936H164.896C165.443 34.6758 165.893 34.8809 166.244 35.2715C166.615 35.6621 166.801 36.1309 166.801 36.6777C166.703 37.8496 166.068 38.4844 164.896 38.582H154.584C153.842 38.6211 153.227 38.9043 152.738 39.4316C152.25 39.959 151.889 40.5645 151.654 41.248C151.439 41.9121 151.332 42.5957 151.332 43.2988C151.332 44.002 151.439 44.6953 151.654 45.3789C151.889 46.043 152.25 46.6387 152.738 47.166C153.227 47.6934 153.842 47.9766 154.584 48.0156H164.896C165.443 48.0352 165.893 48.2402 166.244 48.6309C166.615 49.0215 166.801 49.4902 166.801 50.0371C166.781 50.5645 166.586 51.0137 166.215 51.3848C165.863 51.7363 165.424 51.9219 164.896 51.9414H154.145H153.588C152.221 51.8633 151.088 51.3457 150.189 50.3887C149.311 49.4121 148.676 48.3086 148.285 47.0781C147.914 45.8477 147.729 44.5879 147.729 43.2988C147.729 42.0098 147.924 40.75 148.314 39.5195C148.705 38.2891 149.34 37.1953 150.219 36.2383C151.098 35.2617 152.221 34.7344 153.588 34.6562ZM166.742 43.1816C166.742 43.7285 166.547 44.1875 166.156 44.5586C165.785 44.9492 165.326 45.1445 164.779 45.1445H155.932C155.385 45.1445 154.916 44.959 154.525 44.5879C154.154 44.1973 153.969 43.7285 153.969 43.1816C153.969 42.6348 154.154 42.166 154.525 41.7754C154.916 41.4043 155.385 41.2188 155.932 41.2188H164.779C165.326 41.2188 165.785 41.4141 166.156 41.8047C166.547 42.1758 166.742 42.6348 166.742 43.1816ZM173.686 50.4473C173.568 51.6191 172.924 52.2539 171.752 52.3516C171.205 52.3516 170.727 52.1758 170.316 51.8242C169.926 51.4531 169.73 50.9941 169.73 50.4473V36.5605C169.75 36.0137 169.955 35.5645 170.346 35.2129C170.736 34.8418 171.205 34.6562 171.752 34.6562H173.188H176.791H184.027C184.145 34.6562 184.262 34.666 184.379 34.6855H184.555C185.922 34.7246 187.045 35.0371 187.924 35.623C188.803 36.209 189.438 36.8828 189.828 37.6445C190.219 38.3867 190.414 39.1387 190.414 39.9004C190.414 40.6816 190.219 41.4531 189.828 42.2148C189.457 42.957 188.822 43.6211 187.924 44.207C187.045 44.793 185.922 45.1055 184.555 45.1445H179.398C179.555 46.1211 179.877 46.8438 180.365 47.3125C180.834 47.7812 181.43 48.0156 182.152 48.0156H188.48C189.027 48.0352 189.477 48.2402 189.828 48.6309C190.199 49.0215 190.385 49.4902 190.385 50.0371C190.365 50.5645 190.17 51.0137 189.799 51.3848C189.447 51.7363 189.008 51.9219 188.48 51.9414H181.625C180.18 51.9609 178.871 51.3945 177.699 50.2422C176.527 49.0898 175.814 47.7227 175.561 46.1406C175.209 44.3828 175.033 43.3965 175.033 43.1816C175.033 42.6348 175.219 42.1758 175.59 41.8047C175.98 41.4141 176.449 41.2188 176.996 41.2188H184.73C185.102 41.1992 185.404 41.1211 185.639 40.9844C185.893 40.8281 186.078 40.6621 186.195 40.4863C186.312 40.291 186.371 40.0957 186.371 39.9004C186.371 39.7051 186.312 39.5195 186.195 39.3438C186.078 39.1484 185.893 38.9824 185.639 38.8457C185.404 38.6895 185.102 38.6016 184.73 38.582H176.791H174.447C173.939 38.6016 173.686 38.8555 173.686 39.3438V50.4473Z" fill="#00F0E3"/>
</svg>
